<?xml version="1.0" encoding="utf-8"?>
<!-- Generator: Adobe Illustrator 24.1.1, SVG Export Plug-In . SVG Version: 6.00 Build 0)  -->
<svg version="1.1" id="Слой_1" xmlns="http://www.w3.org/2000/svg" xmlns:xlink="http://www.w3.org/1999/xlink" x="0px" y="0px"
	 viewBox="0 0 1080 587" style="enable-background:new 0 0 1080 587;" xml:space="preserve">
<style type="text/css">
	.st0{fill:#A3121B;}
	.st1{display:none;}
	.st2{display:inline;}
	.st3{fill:#FFFFFF;}
</style>
<g>
	<g>
		<path class="st0" d="M784.04,387.15C783.46,263.51,674.2,163.11,540,163.11s-243.46,100.4-244.04,224.04h88.94
			c-0.09-1.72-0.11-3.44-0.11-5.19c0-79.06,69.49-143.14,155.21-143.14s155.21,64.08,155.21,143.14c0,1.74-0.02,3.46-0.11,5.19
			H784.04z"/>
		<path class="st0" d="M953.29,367.46c-0.16-2.72-2.23-5.02-5.08-5.68l-88.54-20.54c-11.36-2.63-14.28-16.24-4.88-22.67l73.33-50.2
			c2.36-1.64,3.33-4.5,2.36-7.07c-4.99-13.03-10.71-25.72-17.12-38.07c-1.28-2.45-4.16-3.84-7.09-3.44l-90.31,12.36
			c-11.58,1.58-19.95-9.96-13.95-19.21l46.86-72.27c1.51-2.32,1.21-5.31-0.74-7.34c-10.01-10.27-20.63-20.06-31.76-29.29
			c-2.2-1.8-5.44-2.07-7.96-0.68l-78.37,43.21c-10.03,5.54-22.54-2.18-20.83-12.86l13.41-83.29c0.43-2.7-1.08-5.35-3.73-6.53
			c-13.38-5.91-27.15-11.18-41.28-15.79c-2.79-0.89-5.89,0-7.67,2.18l-54.44,67.63c-6.97,8.67-21.73,5.97-24.59-4.5l-22.27-81.65
			c-0.72-2.63-3.22-4.54-6.16-4.69c-7.42-0.37-14.91-0.56-22.47-0.56s-15.05,0.19-22.47,0.56c-2.95,0.15-5.44,2.05-6.16,4.69
			L489.1,93.39c-2.86,10.48-17.61,13.17-24.59,4.5l-54.44-67.63c-1.78-2.18-4.88-3.07-7.67-2.18c-14.13,4.61-27.89,9.87-41.28,15.79
			c-2.65,1.18-4.16,3.84-3.73,6.53l13.41,83.29c1.71,10.68-10.8,18.4-20.83,12.86l-78.37-43.21c-2.52-1.39-5.76-1.12-7.96,0.68
			c-11.13,9.23-21.75,19.02-31.76,29.29c-1.96,2.03-2.25,5.02-0.74,7.34l46.86,72.27c6.01,9.25-2.36,20.79-13.95,19.21l-90.31-12.36
			c-2.92-0.39-5.8,1-7.09,3.44c-6.41,12.34-12.12,25.04-17.12,38.07c-0.97,2.57,0,5.44,2.36,7.07l73.33,50.2
			c9.4,6.43,6.48,20.04-4.88,22.67l-88.54,20.54c-2.86,0.66-4.93,2.97-5.08,5.68c-0.38,6.51-0.58,13.07-0.61,19.69h158.61
			C285.3,257.81,399.61,152.74,540,152.74s254.7,105.07,255.29,234.41H953.9C953.87,380.53,953.67,373.98,953.29,367.46z"/>
	</g>
	<g>
		<g>
			<polygon class="st0" points="216.22,418.27 20.24,418.27 0,399.6 195.97,399.6 			"/>
			<polygon class="st0" points="432.16,418.27 236.19,418.27 215.95,399.6 411.92,399.6 			"/>
			<polygon class="st0" points="648.11,418.27 452.14,418.27 431.89,399.6 627.86,399.6 			"/>
			<polygon class="st0" points="864.05,418.27 668.08,418.27 647.84,399.6 843.81,399.6 			"/>
			<polygon class="st0" points="1080,418.27 884.03,418.27 863.78,399.6 1059.76,399.6 			"/>
		</g>
		<g>
			<polygon points="863.78,578 1059.76,578 1080,559.33 884.03,559.33 			"/>
			<polygon points="647.84,578 843.81,578 864.05,559.33 668.08,559.33 			"/>
			<polygon points="431.89,578 627.86,578 648.11,559.33 452.14,559.33 			"/>
			<polygon points="215.95,578 411.92,578 432.16,559.33 236.19,559.33 			"/>
			<polygon points="0,578 195.97,578 216.22,559.33 20.24,559.33 			"/>
		</g>
		<g>
			<path d="M163.49,486.79c9.15-1.38,16.51-4.3,22.11-8.75H69.88l-25.43,64.43h85.99c13.61,0,24.56-1.83,32.89-5.52
				c8.32-3.69,14.22-9.72,17.7-18.11c3.13-7.78,3.11-14.62-0.09-20.53C177.74,492.39,171.92,488.57,163.49,486.79z M151.36,511.37
				c-1.7,4.14-4.61,6.99-8.78,8.55c-4.17,1.55-10.61,2.34-19.39,2.34H84.76l10.78-27.37h35.58c8.88,0,15,1.4,18.38,4.2
				C152.87,501.88,153.49,505.98,151.36,511.37z M192.41,440.07c-5.9-6.37-16.5-9.55-31.79-9.55H88.64L72.97,470.2h32.38l7.72-19.48
				h32.55c8.08,0,13.49,1.14,16.17,3.43c2.7,2.27,3.04,5.9,1.02,10.88c-0.8,1.98-1.89,3.7-3.25,5.16h33.06
				c1.14-1.74,2.09-3.62,2.89-5.63C199.35,454.61,198.32,446.45,192.41,440.07z"/>
			<path d="M242.4,430.52l-15.65,39.68h32.36l15.66-39.68H242.4z M223.66,478.04l-25.43,64.43h32.36l25.43-64.43H223.66z"/>
			<path d="M273.09,497.22l8.09-21.61h51.43l-8.09,21.61H273.09z"/>
			<path d="M478.88,440.07c-5.9-6.37-16.5-9.55-31.79-9.55H375.1l-15.66,39.68h32.38l7.72-19.48h32.53c8.1,0,13.5,1.14,16.19,3.43
				c2.7,2.27,3.04,5.9,1.02,10.88c-0.8,1.98-1.89,3.7-3.25,5.16h33.06c1.14-1.74,2.09-3.62,2.89-5.63
				C485.82,454.61,484.78,446.45,478.88,440.07z M449.95,486.79c9.15-1.38,16.51-4.3,22.11-8.75H356.34l-25.43,64.43h85.99
				c13.61,0,24.56-1.83,32.89-5.52c8.32-3.69,14.22-9.72,17.69-18.11c3.15-7.78,3.13-14.62-0.07-20.53
				C464.2,492.39,458.39,488.57,449.95,486.79z M437.82,511.37c-1.7,4.14-4.61,6.99-8.78,8.55c-4.17,1.55-10.63,2.34-19.39,2.34
				h-38.45l10.8-27.37h35.58c8.88,0,15,1.4,18.38,4.2C439.34,501.88,439.95,505.98,437.82,511.37z"/>
			<path d="M510.12,478.04l-25.43,64.43h32.36l25.43-64.43H510.12z M528.86,430.52l-15.65,39.68h32.36l15.66-39.68H528.86z"/>
			<path class="st0" d="M682.81,522.73c-32.16,0-43.57-12.66-34.23-37.94c0.9-2.38,1.89-4.63,2.94-6.74h-32.79
				c-0.12,0.27-0.24,0.55-0.34,0.83c-7.98,20.11-7.02,36.12,2.87,48.04c9.88,11.94,27.36,17.9,52.43,17.9
				c15.97,0,28.89-1.35,38.79-4.05l8.42-22.24C709.88,521.31,697.2,522.73,682.81,522.73z M704.39,428.18
				c-10.12,0-19.39,0.85-27.82,2.56c-8.44,1.73-16.41,4.47-23.95,8.25c-7.53,3.78-14.18,9.02-19.98,15.7
				c-3.93,4.55-7.36,9.71-10.34,15.51h33.98c3.86-5.3,8.45-9.41,13.79-12.33c9.49-5.18,20.88-7.76,34.15-7.76
				c13.93,0,26.68,2.38,38.27,7.15l7.93-21.61C735.8,430.66,720.46,428.18,704.39,428.18z"/>
			<path class="st0" d="M864.39,430.52h-36.24c-4.29,0-7.93,0.83-10.97,2.48c-3.03,1.66-5.95,4.41-8.76,8.25l-23.38,28.95h31.07
				l19.97-26l0.65,26h29.35L864.39,430.52z M866.4,478.04h-29.47l0.49,19.95h-42.65l15.32-19.95h-31.39l-52.06,64.43h34.06
				l18.04-23.64h59.18l0.66,23.64h30.53L866.4,478.04z"/>
			<path class="st0" d="M996.84,478.04c-2.11,2.62-4.69,4.5-7.76,5.65c-5.24,1.98-13.86,2.96-25.88,2.96h-22.26l3.4-8.61h-32.43
				l-25.43,64.43h32.36l14-35.6h28.67l14.15,35.6h33.21l-18.03-39.96c10.56-1.14,19.27-3.84,26.12-8.09
				c6.02-3.73,10.71-9.19,14.05-16.37H996.84z M1029.38,442.17c-7.48-7.78-22.11-11.65-43.93-11.65h-54.8L915,470.2h32.42
				l7.69-19.48h21.92c12.24,0,20,1.62,23.27,4.83c3.06,3.04,3.35,7.92,0.82,14.65h32.87
				C1037.52,458.39,1035.99,449.04,1029.38,442.17z"/>
		</g>
	</g>
</g>
<g class="st1">
	<g class="st2">
		<g>
			<polygon class="st0" points="1265.15,-47.13 1124.98,-47.13 1110.5,-61.61 1250.67,-61.61 			"/>
			<polygon class="st0" points="1419.62,-47.13 1279.44,-47.13 1264.96,-61.61 1405.14,-61.61 			"/>
			<polygon class="st0" points="1574.08,-47.13 1433.9,-47.13 1419.42,-61.61 1559.6,-61.61 			"/>
			<polygon class="st0" points="1728.54,-47.13 1588.36,-47.13 1573.88,-61.61 1714.06,-61.61 			"/>
			<polygon class="st0" points="1883,-47.13 1742.83,-47.13 1728.35,-61.61 1868.52,-61.61 			"/>
		</g>
		<g>
			<polygon class="st3" points="1728.35,76.76 1868.52,76.76 1883,62.28 1742.83,62.28 			"/>
			<polygon class="st3" points="1573.88,76.76 1714.06,76.76 1728.54,62.28 1588.36,62.28 			"/>
			<polygon class="st3" points="1419.42,76.76 1559.6,76.76 1574.08,62.28 1433.9,62.28 			"/>
			<polygon class="st3" points="1264.96,76.76 1405.14,76.76 1419.62,62.28 1279.44,62.28 			"/>
			<polygon class="st3" points="1110.5,76.76 1250.67,76.76 1265.15,62.28 1124.98,62.28 			"/>
		</g>
		<g>
			<path class="st3" d="M1227.44,6.02c6.54-1.07,11.81-3.33,15.81-6.79h-82.77L1142.3,49.2h61.5c9.73,0,17.57-1.42,23.53-4.28
				c5.95-2.86,10.17-7.54,12.66-14.05c2.24-6.03,2.23-11.34-0.06-15.92C1237.63,10.36,1233.47,7.39,1227.44,6.02z M1218.76,25.08
				c-1.22,3.21-3.3,5.43-6.28,6.63c-2.98,1.2-7.59,1.81-13.87,1.81h-27.49l7.71-21.23h25.45c6.35,0,10.73,1.08,13.15,3.26
				C1219.85,17.72,1220.28,20.9,1218.76,25.08z M1248.13-30.22c-4.22-4.94-11.8-7.41-22.74-7.41h-51.49l-11.2,30.78h23.16
				l5.52-15.11h23.28c5.78,0,9.65,0.89,11.57,2.66c1.93,1.76,2.18,4.57,0.73,8.44c-0.57,1.53-1.35,2.87-2.32,4h23.65
				c0.82-1.35,1.5-2.81,2.07-4.37C1253.09-18.94,1252.35-25.27,1248.13-30.22z"/>
			<path class="st3" d="M1283.88-37.63l-11.19,30.78h23.15l11.2-30.78H1283.88z M1270.48-0.77l-18.19,49.97h23.15l18.19-49.97
				H1270.48z"/>
			<path class="st3" d="M1305.83,14.11l5.79-16.76h36.78l-5.79,16.76H1305.83z"/>
			<path class="st3" d="M1453.03-30.22c-4.22-4.94-11.8-7.41-22.74-7.41h-51.49l-11.2,30.78h23.16l5.52-15.11h23.27
				c5.79,0,9.66,0.89,11.58,2.66c1.93,1.76,2.18,4.57,0.73,8.44c-0.57,1.53-1.35,2.87-2.32,4h23.65c0.82-1.35,1.5-2.81,2.07-4.37
				C1457.99-18.94,1457.25-25.27,1453.03-30.22z M1432.34,6.02c6.54-1.07,11.81-3.33,15.81-6.79h-82.77L1347.2,49.2h61.5
				c9.73,0,17.57-1.42,23.53-4.28c5.95-2.86,10.17-7.54,12.65-14.05c2.25-6.03,2.24-11.34-0.05-15.92
				C1442.53,10.36,1438.37,7.39,1432.34,6.02z M1423.67,25.08c-1.22,3.21-3.3,5.43-6.28,6.63c-2.98,1.2-7.6,1.81-13.87,1.81h-27.5
				l7.72-21.23h25.45c6.35,0,10.73,1.08,13.15,3.26C1424.75,17.72,1425.19,20.9,1423.67,25.08z"/>
			<path class="st3" d="M1475.38-0.77l-18.19,49.97h23.15l18.19-49.97H1475.38z M1488.78-37.63l-11.19,30.78h23.15l11.2-30.78
				H1488.78z"/>
			<path class="st0" d="M1598.9,33.89c-23,0-31.17-9.82-24.49-29.43c0.64-1.85,1.35-3.59,2.1-5.23h-23.45
				c-0.09,0.21-0.17,0.43-0.24,0.64c-5.71,15.6-5.02,28.02,2.06,37.26c7.07,9.26,19.57,13.88,37.5,13.88
				c11.42,0,20.67-1.05,27.75-3.14l6.02-17.25C1618.26,32.79,1609.19,33.89,1598.9,33.89z M1614.33-39.44
				c-7.24,0-13.87,0.66-19.9,1.98c-6.03,1.34-11.74,3.47-17.13,6.4c-5.39,2.93-10.15,6.99-14.29,12.18
				c-2.81,3.53-5.27,7.53-7.4,12.03h24.3c2.76-4.11,6.05-7.3,9.87-9.56c6.79-4.01,14.94-6.02,24.43-6.02
				c9.96,0,19.09,1.85,27.37,5.55l5.67-16.76C1636.8-37.52,1625.83-39.44,1614.33-39.44z"/>
			<path class="st0" d="M1728.78-37.63h-25.92c-3.07,0-5.67,0.64-7.85,1.92c-2.17,1.29-4.26,3.42-6.26,6.4l-16.73,22.46h22.22
				l14.28-20.17l0.46,20.17h21L1728.78-37.63z M1730.22-0.77h-21.08l0.35,15.47h-30.51l10.96-15.47h-22.46l-37.24,49.97h24.37
				l12.91-18.33h42.33l0.47,18.33h21.84L1730.22-0.77z"/>
			<path class="st0" d="M1823.52-0.77c-1.51,2.03-3.36,3.49-5.55,4.38c-3.75,1.53-9.91,2.3-18.51,2.3h-15.92l2.43-6.68h-23.2
				l-18.19,49.97h23.15l10.01-27.61h20.51l10.12,27.61h23.76l-12.89-31c7.55-0.89,13.78-2.98,18.68-6.28
				c4.31-2.9,7.66-7.13,10.05-12.7H1823.52z M1846.79-28.59c-5.35-6.03-15.81-9.04-31.42-9.04h-39.19l-11.19,30.78h23.19l5.5-15.11
				h15.68c8.76,0,14.31,1.25,16.64,3.75c2.19,2.36,2.4,6.14,0.58,11.36h23.51C1852.62-16.01,1851.52-23.26,1846.79-28.59z"/>
		</g>
	</g>
	<g class="st2">
		<path class="st0" d="M1671.31-71.26c-0.42-95.89-78.57-173.77-174.56-173.77s-174.14,77.87-174.56,173.77h63.62
			c-0.06-1.34-0.08-2.67-0.08-4.02c0-61.32,49.7-111.02,111.02-111.02s111.02,49.7,111.02,111.02c0,1.35-0.02,2.69-0.08,4.02
			H1671.31z"/>
		<path class="st0" d="M1792.37-86.53c-0.11-2.11-1.59-3.89-3.64-4.41l-63.33-15.93c-8.13-2.04-10.22-12.6-3.49-17.59l52.45-38.94
			c1.69-1.27,2.38-3.49,1.69-5.49c-3.57-10.1-7.66-19.95-12.24-29.52c-0.92-1.9-2.98-2.98-5.07-2.67l-64.6,9.59
			c-8.29,1.22-14.27-7.72-9.98-14.9l33.52-56.06c1.08-1.8,0.87-4.12-0.53-5.7c-7.16-7.96-14.75-15.56-22.72-22.72
			c-1.58-1.4-3.89-1.61-5.7-0.53l-56.06,33.51c-7.18,4.3-16.12-1.69-14.9-9.98l9.59-64.6c0.31-2.09-0.77-4.15-2.67-5.07
			c-9.57-4.59-19.42-8.67-29.52-12.24c-1.99-0.69-4.22,0-5.49,1.69l-38.94,52.45c-4.99,6.73-15.54,4.63-17.59-3.49l-15.93-63.33
			c-0.51-2.04-2.3-3.52-4.41-3.64c-5.31-0.29-10.67-0.43-16.07-0.43s-10.76,0.14-16.07,0.43c-2.11,0.11-3.89,1.59-4.41,3.64
			l-15.93,63.33c-2.04,8.13-12.6,10.22-17.59,3.49l-38.94-52.45c-1.27-1.69-3.49-2.38-5.49-1.69c-10.1,3.57-19.95,7.66-29.52,12.24
			c-1.9,0.92-2.98,2.98-2.67,5.07l9.59,64.6c1.22,8.29-7.72,14.27-14.9,9.98l-56.06-33.51c-1.8-1.08-4.12-0.87-5.7,0.53
			c-7.96,7.16-15.56,14.75-22.72,22.72c-1.4,1.58-1.61,3.89-0.53,5.7l33.52,56.06c4.3,7.18-1.69,16.12-9.98,14.9l-64.6-9.59
			c-2.09-0.31-4.15,0.77-5.07,2.67c-4.59,9.57-8.67,19.42-12.24,29.52c-0.69,2,0,4.22,1.69,5.49l52.45,38.94
			c6.73,4.99,4.63,15.54-3.49,17.59l-63.33,15.93c-2.04,0.51-3.52,2.3-3.64,4.41c-0.27,5.05-0.42,10.14-0.43,15.27h113.45
			c0.42-100.32,82.19-181.81,182.6-181.81s182.18,81.49,182.6,181.81h113.45C1792.78-76.4,1792.64-81.48,1792.37-86.53z"/>
	</g>
</g>
</svg>
